<?xml version="1.0" encoding="UTF-8"?>
<svg id="Sprites" xmlns="http://www.w3.org/2000/svg" xmlns:xlink="http://www.w3.org/1999/xlink" viewBox="0 0 1920 1920">
  <defs>
    <style>
      .cls-1 {
        fill: #fdce77;
      }

      .cls-2 {
        fill: #00659a;
      }

      .cls-3 {
        clip-path: url(#clippath-6);
      }

      .cls-4 {
        clip-path: url(#clippath-7);
      }

      .cls-5 {
        fill: #327040;
      }

      .cls-6 {
        clip-path: url(#clippath-4);
      }

      .cls-7 {
        stroke: #fff;
        stroke-linecap: round;
        stroke-miterlimit: 10;
        stroke-width: 13px;
      }

      .cls-7, .cls-8, .cls-9 {
        fill: none;
      }

      .cls-10 {
        clip-path: url(#clippath-5);
      }

      .cls-10, .cls-11 {
        fill: #fff;
      }

      .cls-12 {
        fill: #0086cc;
      }

      .cls-13 {
        fill: #5d6628;
      }

      .cls-14 {
        fill: #700000;
      }

      .cls-15 {
        fill: #c69c6d;
      }

      .cls-16 {
        fill: #685fe0;
      }

      .cls-17 {
        fill: #974f99;
      }

      .cls-18 {
        fill: #b7442e;
      }

      .cls-19, .cls-20 {
        fill: #c1272d;
      }

      .cls-19, .cls-9 {
        stroke: #000;
        stroke-linejoin: round;
        stroke-width: 4px;
      }

      .cls-21 {
        clip-path: url(#clippath-8);
      }

      .cls-22 {
        fill: #f9cb4b;
      }

      .cls-23 {
        clip-path: url(#clippath-3);
      }

      .cls-24 {
        fill: #e8ea8c;
      }

      .cls-25 {
        fill: #999;
      }

      .cls-26 {
        fill: #b5b4b4;
      }

      .cls-27 {
        fill: #ccc;
      }

      .cls-28 {
        fill: #5b285e;
      }

      .cls-29 {
        fill: #808e42;
      }

      .cls-30 {
        clip-path: url(#clippath-2);
      }

      .cls-31 {
        fill: #310000;
      }

      .cls-32 {
        fill: #255628;
      }

      .cls-33 {
        fill: #2b2b7f;
      }

      .cls-34 {
        fill: #ff715f;
      }
    </style>
    <clipPath id="clippath-2">
      <path class="cls-8" d="M318.16,1360.39l-215.46,112.3c0,48.46,8.05,98.53,18.93,144.11,24.46,102.39,98.34,185.85,197.05,222.46l1.91.71h0c96-36.88,168.37-118.16,192.87-218.04,11.51-46.93,20.17-98.96,20.17-149.24l-215.46-112.3Z"/>
    </clipPath>
    <clipPath id="clippath-3">
      <path class="cls-8" d="M946.77,382.91l-211.44-185.39-63.57-166.15,166.15,63.57,185.39,211.44c-12.65,5.8-26.28,9.46-40.35,10.7l-23.42,2.06-2.06,23.41c-1.24,14.07-4.9,27.7-10.7,40.35Z"/>
    </clipPath>
    <clipPath id="clippath-4">
      <path class="cls-1" d="M1126.16,239.42l26.73,72.72h0c-52.1,52.1-49.93,110.75,9.06,172.63l29.95,30.98c17.59-5.36,35.93-2.28,48.16,9.95,19.03,19.03,16.02,52.9-6.73,75.65-22.75,22.75-56.62,25.76-75.65,6.73-12.23-12.23-15.3-30.57-9.95-48.16l-30.98-29.95c-61.88-58.99-120.53-61.16-172.63-9.06h0l-72.72-26.73c-13.21-4.86-13.51-23.42-.4-24.81l31.33-3.31c15.63-1.65,29.65-8.18,40.18-18.71h0c20.36-20.36,32.9-47.24,35.43-75.92l2.06-23.42,23.42-2.06c28.68-2.53,55.56-15.07,75.92-35.43h0c10.53-10.53,17.06-24.55,18.71-40.18l3.31-31.33c1.39-13.11,19.95-12.81,24.81.4Z"/>
    </clipPath>
    <clipPath id="clippath-5">
      <path class="cls-7" d="M1161.97,483.24"/>
    </clipPath>
    <clipPath id="clippath-6">
      <path class="cls-10" d="M944.13,538.59c-2.2,0-4.44-.38-6.62-1.19l-72.72-26.73c-15.12-5.56-24.33-20.32-22.4-35.9,1.74-14.06,12.44-24.52,26.61-26.02l31.33-3.31c11.28-1.19,21.18-5.76,28.62-13.2,17.15-17.14,27.76-39.88,29.89-64.03.93-10.56,10.24-18.4,20.81-17.44,10.56.93,18.37,10.24,17.44,20.81-2.92,33.12-17.47,64.31-40.98,87.81-13.72,13.72-31.61,22.1-51.73,24.23l-1.44.15,47.84,17.59c9.95,3.66,15.06,14.69,11.4,24.64-2.85,7.77-10.2,12.58-18.02,12.58Z"/>
    </clipPath>
    <clipPath id="clippath-7">
      <path class="cls-8" d="M1810.85,385.09c0-75.15-35.46-139.16-52.92-166.13-2.26-3.49-7.73-1.58-7.31,2.56,8.07,78.34-29.47,116.07-29.47,116.07,0,0,4.71-71.84-62.42-144.86-60.15-65.43-58.83-123.37-55.59-143.86.51-3.23-2.84-5.68-5.74-4.18-20.29,10.48-74.89,45.02-65.27,109.18,11.78,78.51-45.93,136.62-45.93,136.62,1.17-45.21-34.94-77.2-53.58-90.66-3.11-2.25-7.2.72-6.14,4.41,9.45,32.87-5.1,80.57-21.21,118.73-46.41,109.93,10.66,237.4,125.05,271.39,19.73,5.86,40.63,9.01,62.26,9.01,120.55,0,218.27-97.72,218.27-218.27Z"/>
    </clipPath>
    <clipPath id="clippath-8">
      <path class="cls-19" d="M1061.92,1346.6l-102.32,66.95-101.45-66.7c-38.19-25.11-89.57-13.78-113.66,25.07l-79.63,128.45c-10.59,17.09-8.73,39.1,4.58,54.16l266.06,301.08c13.02,14.73,36,14.73,49.02,0l266.06-301.08c13.31-15.06,15.17-37.07,4.58-54.16l-79.73-128.61c-24.05-38.79-75.32-50.16-113.51-25.17Z"/>
    </clipPath>
  </defs>
  <g>
    <g>
      <path class="cls-11" d="M317.83,1291.63l-277.25,144.51c0,62.35,10.35,126.79,24.36,185.43,31.47,131.76,126.55,239.15,253.56,286.26l2.45.91h0c123.53-47.45,216.66-152.04,248.18-280.57,14.81-60.39,25.96-127.34,25.96-192.03l-277.25-144.51Z"/>
      <path d="M320.98,1915.32l-4.64-1.72c-129.16-47.91-225.39-156.55-257.41-290.61-16.28-68.14-24.53-131.01-24.53-186.86v-3.74l283.41-147.72,283.41,147.72v3.74c0,57.68-8.79,122.79-26.14,193.5-31.88,130.01-126.07,236.5-251.95,284.85l-2.17.83ZM46.75,1439.86c.36,53.96,8.49,114.59,24.18,180.27,31.06,130.05,124.41,235.44,249.71,281.92l.26.1c121.03-47.29,211.5-150.1,242.24-275.45,16.73-68.23,25.4-131.07,25.77-186.84l-271.08-141.29-271.08,141.29Z"/>
    </g>
    <g class="cls-30">
      <polygon class="cls-12" points="318.16 1360.39 320.59 1839.97 583.89 1839.97 583.89 1332.17 318.16 1360.39"/>
      <polyline class="cls-2" points="318.16 1360.39 58 1360.39 58 1867.6 320.59 1839.97"/>
    </g>
  </g>
  <g>
    <g>
      <g class="cls-23">
        <polygon class="cls-27" points="599.81 104.13 928.16 432.48 1009.97 350.67 661.82 2.52 579.9 84.44 599.81 104.13"/>
        <polygon class="cls-25" points="671.76 31.37 1000.11 359.72 1081.92 277.92 733.77 -70.23 651.85 11.68 671.76 31.37"/>
      </g>
      <g>
        <path class="cls-1" d="M1126.16,239.42l26.73,72.72h0c-52.1,52.1-49.93,110.75,9.06,172.63l29.95,30.98c17.59-5.36,35.93-2.28,48.16,9.95,19.03,19.03,16.02,52.9-6.73,75.65-22.75,22.75-56.62,25.76-75.65,6.73-12.23-12.23-15.3-30.57-9.95-48.16l-30.98-29.95c-61.88-58.99-120.53-61.16-172.63-9.06h0l-72.72-26.73c-13.21-4.86-13.51-23.42-.4-24.81l31.33-3.31c15.63-1.65,29.65-8.18,40.18-18.71h0c20.36-20.36,32.9-47.24,35.43-75.92l2.06-23.42,23.42-2.06c28.68-2.53,55.56-15.07,75.92-35.43h0c10.53-10.53,17.06-24.55,18.71-40.18l3.31-31.33c1.39-13.11,19.95-12.81,24.81.4Z"/>
        <g class="cls-6">
          <g>
            <path class="cls-1" d="M1233.35,599.82c22.75-22.75,25.76-56.62,6.73-75.65-12.23-12.23-30.57-15.3-48.16-9.95l-29.95-30.98c-58.99-61.88-61.16-120.53-9.06-172.63h0s-26.73-72.72-26.73-72.72"/>
            <path class="cls-15" d="M1233.35,619.02c-4.91,0-9.83-1.87-13.58-5.62-7.5-7.5-7.5-19.65,0-27.15,14.97-14.97,18.05-37.18,6.73-48.5-6.71-6.72-17.55-8.64-28.99-5.16l-11.23,3.42-38.11-39.42c-62.33-65.38-68.25-132.57-17.36-190.47l-22.64-61.61c-3.66-9.95,1.44-20.98,11.4-24.64,9.95-3.67,20.98,1.44,24.64,11.39l30.97,84.24-8.68,8.68c-45.28,45.27-42.3,91.6,9.38,145.81l22.42,23.19c21.05-2.99,41.13,3.17,55.36,17.41,13.3,13.29,19.63,31.65,17.85,51.7-1.67,18.76-10.4,36.91-24.58,51.09-3.75,3.75-8.66,5.62-13.58,5.62Z"/>
          </g>
          <g>
            <path class="cls-11" d="M944.13,538.59c-2.2,0-4.44-.38-6.62-1.19l-72.72-26.73c-15.12-5.56-24.33-20.32-22.4-35.9,1.74-14.06,12.44-24.52,26.61-26.02l31.33-3.31c11.28-1.19,21.18-5.76,28.62-13.2,17.15-17.14,27.76-39.88,29.89-64.03.93-10.56,10.24-18.4,20.81-17.44,10.56.93,18.37,10.24,17.44,20.81-2.92,33.12-17.47,64.31-40.98,87.81-13.72,13.72-31.61,22.1-51.73,24.23l-1.44.15,47.84,17.59c9.95,3.66,15.06,14.69,11.4,24.64-2.85,7.77-10.2,12.58-18.02,12.58Z"/>
            <g class="cls-3">
              <path class="cls-11" d="M1233.35,619.02c-4.91,0-9.83-1.87-13.58-5.62-7.5-7.5-7.5-19.65,0-27.15,14.97-14.97,18.05-37.18,6.73-48.5-6.71-6.72-17.55-8.64-28.99-5.16l-11.23,3.42-38.11-39.42c-62.33-65.38-68.25-132.57-17.36-190.47l-22.64-61.61c-3.66-9.95,1.44-20.98,11.4-24.64,9.95-3.67,20.98,1.44,24.64,11.39l30.97,84.24-8.68,8.68c-45.28,45.27-42.3,91.6,9.38,145.81l22.42,23.19c21.05-2.99,41.13,3.17,55.36,17.41,13.3,13.29,19.63,31.65,17.85,51.7-1.67,18.76-10.4,36.91-24.58,51.09-3.75,3.75-8.66,5.62-13.58,5.62Z"/>
            </g>
            <path class="cls-7" d="M1161.97,483.24"/>
          </g>
        </g>
      </g>
      <path d="M948.83,392.58l-218.51-191.58-68.81-179.87,179.87,68.81.96,1.1,190.61,217.4-7.2,3.31c-13.41,6.15-27.64,9.92-42.29,11.22l-18.48,1.63-1.63,18.48c-1.29,14.65-5.06,28.88-11.22,42.29l-3.31,7.2ZM740.32,194.05l204.17,179.02c3.78-9.98,6.16-20.37,7.1-31.02l2.49-28.34,28.35-2.5c10.64-.94,21.04-3.32,31.01-7.1l-179.01-204.17-152.43-58.32,58.32,152.43Z"/>
    </g>
    <path d="M1189.34,626.46c-13.49,0-26.3-4.66-35.84-14.2-12.61-12.62-17.13-31.29-12.39-50.53l-28.46-27.52c-58.92-56.17-114.23-59.24-164.35-9.13l-2.67,2.67-76.27-28.03c-9.29-3.41-14.97-12.37-13.8-21.78.98-7.92,6.8-13.59,14.82-14.44l31.33-3.31c14.35-1.52,27.01-7.4,36.62-17.02,19.34-19.35,31.32-45.01,33.72-72.26l2.49-28.35,28.35-2.49c27.26-2.4,52.92-14.38,72.26-33.72,9.62-9.62,15.5-22.28,17.01-36.62l3.31-31.33c.85-8.02,6.52-13.84,14.44-14.82,9.4-1.19,18.37,4.5,21.78,13.8l28.03,76.27-2.67,2.67c-50.12,50.12-47.04,105.43,9.15,164.38l27.49,28.43c19.23-4.75,37.91-.22,50.52,12.39,10.46,10.46,15.44,25.07,14.01,41.13-1.39,15.67-8.76,30.89-20.74,42.87-13.82,13.82-31.51,20.93-48.17,20.93ZM1022.31,477.84c31.9,0,65.06,15.97,98.51,47.86l33.6,32.49-1.05,3.46c-4.94,16.21-1.77,32.01,8.47,42.26,16.7,16.69,46.88,13.68,67.3-6.73,10.02-10.03,16.18-22.66,17.33-35.57,1.12-12.51-2.65-23.78-10.59-31.73-10.24-10.24-26.05-13.41-42.26-8.47l-3.46,1.05-32.46-33.57c-59.64-62.57-63.62-124.11-11.64-178.21l-25.44-69.21c-1.68-4.58-5.89-6.55-9.24-6.15-2.48.31-3.87,1.77-4.14,4.33l-3.31,31.33c-1.8,17.06-8.86,32.18-20.41,43.73-21.3,21.31-49.56,34.49-79.58,37.14l-18.49,1.63-1.63,18.48c-2.64,30.01-15.83,58.27-37.14,79.58-11.55,11.55-26.67,18.61-43.74,20.41l-31.33,3.31c-2.57.27-4.03,1.66-4.33,4.14-.41,3.32,1.57,7.56,6.15,9.24l69.22,25.44c25.16-24.17,51.93-36.25,79.66-36.25Z"/>
  </g>
  <g>
    <g>
      <path class="cls-20" d="M421.68,67.19l-102.09,66.8-101.22-66.55c-38.1-25.05-89.37-13.74-113.4,25.01L25.53,220.62c-10.57,17.05-8.71,39.01,4.57,54.04l265.45,300.39c12.99,14.7,35.92,14.7,48.91,0l265.45-300.39c13.28-15.03,15.14-36.99,4.57-54.04l-79.55-128.31c-23.99-38.7-75.15-50.04-113.25-25.11Z"/>
      <path d="M320,592.41c-11.17,0-21.81-4.8-29.21-13.17L25.35,278.85c-15.25-17.26-17.34-42-5.21-61.57L99.59,89.12c12.53-20.21,32.22-34.17,55.44-39.29,23.22-5.12,46.95-.75,66.83,12.32l97.74,64.26,98.61-64.52c19.86-13,43.56-17.34,66.76-12.19,23.18,5.14,42.84,19.09,55.35,39.27l79.55,128.31c12.13,19.57,10.04,44.32-5.21,61.57l-265.45,300.39c-7.4,8.37-18.04,13.17-29.21,13.17ZM174.04,60.43c-5.41,0-10.86.59-16.27,1.79-19.85,4.38-36.69,16.31-47.4,33.58L30.91,223.96c-9.16,14.78-7.58,33.47,3.93,46.5l265.45,300.39c4.99,5.65,12.17,8.88,19.7,8.88s14.72-3.24,19.7-8.88l265.45-300.39c11.52-13.03,13.09-31.72,3.93-46.5l-79.55-128.31c-10.7-17.25-27.5-29.17-47.32-33.57-19.81-4.4-40.09-.7-57.08,10.42l-102.09,66.8c-2.11,1.38-4.85,1.38-6.95,0l-101.22-66.55c-12.35-8.12-26.45-12.32-40.85-12.32Z"/>
    </g>
    <path class="cls-34" d="M87.93,274.67c-5.26,0-10.5-2.17-14.26-6.43-14.07-15.93-16-38.77-4.81-56.83l50.31-81.15c10.09-16.27,25.94-27.5,44.63-31.62,18.69-4.12,37.79-.6,53.79,9.91,8.78,5.77,11.21,17.56,5.44,26.34-5.77,8.77-17.55,11.21-26.34,5.44-7.34-4.83-16.11-6.45-24.7-4.55-8.58,1.89-15.86,7.05-20.49,14.52l-50.31,81.15c-2.29,3.69-1.89,8.35.98,11.6,6.95,7.87,6.21,19.89-1.66,26.84-3.62,3.2-8.11,4.77-12.58,4.77Z"/>
    <path class="cls-14" d="M333.96,539.8c-4.48,0-8.97-1.57-12.59-4.77-7.87-6.95-8.61-18.97-1.66-26.84l223.58-253.07c4.74-5.36,5.39-13.06,1.62-19.14l-61.46-99.14c-5.53-8.93-2.78-20.65,6.14-26.19,8.92-5.54,20.65-2.78,26.19,6.14l61.46,99.14c12.69,20.46,10.5,46.33-5.45,64.37l-223.58,253.07c-3.76,4.25-9,6.43-14.26,6.43Z"/>
  </g>
  <g>
    <g>
      <circle class="cls-22" cx="320" cy="993.36" r="269.56"/>
      <path d="M320,735.8c142.02,0,257.56,115.54,257.56,257.56s-115.54,257.56-257.56,257.56S62.44,1135.38,62.44,993.36s115.54-257.56,257.56-257.56M320,723.8c-148.88,0-269.56,120.69-269.56,269.56s120.69,269.56,269.56,269.56,269.56-120.69,269.56-269.56-120.69-269.56-269.56-269.56h0Z"/>
    </g>
    <path class="cls-18" d="M483.13,829.46c-2.23-3.45-7.63-1.56-7.21,2.52,7.96,77.29-29.08,114.51-29.08,114.51,0,0,4.65-70.88-61.58-142.92-59.35-64.55-58.04-121.71-54.85-141.93.5-3.19-2.8-5.61-5.67-4.13-20.01,10.34-73.89,44.42-64.39,107.72,11.62,77.46-45.31,134.78-45.31,134.78,1.15-44.61-34.49-76.18-52.87-89.45-3.04-2.2-7.11.67-6.07,4.27,9.37,32.43-5,79.54-20.9,117.22-41.07,97.27.02,208.41,90.34,254.5-26.84-25.06-43.64-60.74-43.64-100.36,0-47.28,22.31-87.55,33.3-104.52,1.42-2.2,4.86-1,4.6,1.61-5.08,49.29,18.54,73.02,18.54,73.02,0,0-2.96-45.2,39.27-91.14,37.85-41.17,37.01-77.62,34.98-90.51-.32-2.03,1.78-3.58,3.61-2.63,12.76,6.59,47.16,28.33,41.06,68.69-11.42,75.67,33.55,115.59,33.55,115.59,0,0,23.62-23.74,18.54-73.02-.27-2.6,3.17-3.81,4.6-1.61,10.99,16.97,33.3,57.23,33.3,104.52,0,42.68-16.53,80.81-44.49,106,77.85-32.44,132.58-109.24,132.58-198.84,0-74.15-34.98-137.29-52.21-163.9Z"/>
    <path d="M446.85,951c-.1,0-.2,0-.29,0-2.48-.16-4.36-2.3-4.21-4.78.04-.69,3.61-69.95-60.4-139.58-62.54-68.02-58.66-128.71-55.98-145.68.39-2.46,2.69-4.14,5.15-3.75,2.46.39,4.13,2.69,3.75,5.15-2.52,15.97-6.09,73.14,53.72,138.19,66.77,72.62,62.95,143.29,62.76,146.26-.16,2.38-2.14,4.21-4.49,4.21Z"/>
    <path d="M402.76,1196.7c-1.76,0-3.44-1.04-4.16-2.77-.96-2.3.13-4.93,2.42-5.89,78.86-32.86,129.81-109.28,129.81-194.68,0-73.96-36.01-137.55-51.49-161.45-1.35-2.09-.76-4.87,1.33-6.23,2.08-1.35,4.87-.76,6.23,1.33,15.92,24.58,52.94,89.98,52.94,166.35,0,89.05-53.13,168.73-135.35,203-.57.23-1.15.35-1.73.35Z"/>
    <path d="M390.81,1060.82c-1.15,0-2.3-.44-3.17-1.31-1.76-1.75-1.77-4.59-.03-6.36.3-.31,22.03-23.16,17.27-69.4-.26-2.47,1.54-4.68,4.02-4.94,2.44-.23,4.68,1.54,4.94,4.02,5.24,50.83-18.8,75.63-19.83,76.66-.88.89-2.04,1.33-3.19,1.33Z"/>
    <path d="M238.33,1060.81c-2.35,0-4.33-1.82-4.49-4.2-.13-1.92-2.59-47.66,40.45-94.48,37.65-40.95,35.42-76.76,33.85-86.77-.39-2.46,1.29-4.76,3.75-5.15,2.44-.39,4.76,1.29,5.15,3.75,1.74,11.01,4.26,50.34-36.11,94.26-40.29,43.83-38.12,87.37-38.09,87.81.15,2.48-1.73,4.62-4.21,4.77-.1,0-.19,0-.29,0Z"/>
    <path d="M225.54,1191.07c-1.1,0-2.2-.4-3.07-1.21-28.64-26.75-45.07-64.53-45.07-103.66,0-49.14,23.79-91.17,34.02-106.96,1.35-2.09,4.14-2.68,6.23-1.33,2.09,1.35,2.68,4.14,1.33,6.23-9.79,15.12-32.57,55.33-32.57,102.07,0,36.64,15.39,72.02,42.21,97.07,1.82,1.7,1.92,4.55.22,6.36-.89.95-2.09,1.43-3.29,1.43Z"/>
    <path d="M215.04,904.52s-.08,0-.12,0c-2.49-.06-4.45-2.13-4.38-4.62,1.07-41.74-31.5-71.6-51.01-85.68-2.02-1.45-2.47-4.27-1.01-6.28s4.27-2.47,6.28-1.01c20.95,15.13,55.92,47.35,54.74,93.22-.06,2.44-2.06,4.39-4.5,4.39Z"/>
  </g>
  <g>
    <g>
      <path class="cls-16" d="M1810.85,385.09c0-75.15-35.46-139.16-52.92-166.13-2.26-3.49-7.73-1.58-7.31,2.56,8.07,78.34-29.47,116.07-29.47,116.07,0,0,4.71-71.84-62.42-144.86-60.15-65.43-58.83-123.37-55.59-143.86.51-3.23-2.84-5.68-5.74-4.18-20.29,10.48-74.89,45.02-65.27,109.18,11.78,78.51-45.93,136.62-45.93,136.62,1.17-45.21-34.94-77.2-53.58-90.66-3.11-2.25-7.2.72-6.14,4.41,9.45,32.87-5.1,80.57-21.21,118.73-46.41,109.93,10.66,237.4,125.05,271.39,19.73,5.86,40.63,9.01,62.26,9.01,120.55,0,218.27-97.72,218.27-218.27Z"/>
      <path d="M1599.22,44.23c2.3,0,4.32,2.07,3.92,4.63-3.23,20.49-4.56,78.43,55.59,143.86,67.13,73.02,62.42,144.86,62.42,144.86,0,0,37.55-37.73,29.47-116.07-.27-2.64,1.86-4.38,4.02-4.38,1.23,0,2.46.56,3.28,1.82,17.47,26.97,52.92,90.97,52.92,166.13,0,120.55-97.72,218.27-218.27,218.27-21.63,0-42.53-3.15-62.26-9.01-114.39-33.98-171.46-161.45-125.05-271.39,16.11-38.16,30.66-85.86,21.21-118.73-.81-2.8,1.36-5.19,3.81-5.19.77,0,1.58.24,2.32.78,18.64,13.46,54.74,45.45,53.58,90.66,0,0,57.71-58.1,45.93-136.62-9.62-64.16,44.98-98.7,65.27-109.18.6-.31,1.22-.45,1.83-.45M1599.22,29.02h0c-3.04,0-6.09.74-8.81,2.15-20.05,10.36-84.57,49.98-73.33,124.95,6.05,40.32-8.45,74.96-21.98,97.23-11.63-31.36-36.74-53.7-53.58-65.86-3.31-2.39-7.2-3.66-11.23-3.66-5.98,0-11.71,2.87-15.33,7.68-3.66,4.86-4.79,11.03-3.1,16.93,6.6,22.94-.72,61.52-20.61,108.61-24.28,57.51-22.97,122.73,3.58,178.96,26.2,55.48,72.78,95.58,131.15,112.93,21.53,6.4,43.94,9.64,66.6,9.64,128.74,0,233.48-104.74,233.48-233.48,0-77.36-34.69-142.47-55.37-174.4-3.55-5.49-9.55-8.76-16.05-8.76-5.48,0-10.71,2.32-14.37,6.37-3.6,3.99-5.34,9.37-4.79,14.77,2.87,27.82-.41,49.82-5.45,66.27-7.65-29.16-24.27-67.92-60.11-106.91-57.39-62.42-54.13-116.2-51.77-131.2.88-5.56-.71-11.21-4.36-15.48-3.66-4.28-8.98-6.74-14.58-6.74h0Z"/>
    </g>
    <g class="cls-4">
      <path class="cls-11" d="M1648.23,382.89c-71.34-39.83-75.07-70.46-47.69-106.7,1.32-1.74-2.48-3.76-5.02-2.76-17.73,6.93-66.33,29.86-57.05,72.16,7.95,36.24-39.74,73.88-39.74,73.88-28.61,21.52-45.58,51.59-45.58,85.81,0,65.06,64.75,117.8,144.62,117.8s144.62-52.74,144.62-117.8c0,0,10.13-64.17-94.17-122.4Z"/>
    </g>
    <circle class="cls-33" cx="1597.91" cy="507.4" r="77.27"/>
    <circle cx="1597.91" cy="507.4" r="31.22"/>
  </g>
  <g>
    <path class="cls-20" d="M1061.92,1346.6l-102.32,66.95-101.45-66.7c-38.19-25.11-89.57-13.78-113.66,25.07l-79.63,128.45c-10.59,17.09-8.73,39.1,4.58,54.16l266.06,301.08c13.02,14.73,36,14.73,49.02,0l266.06-301.08c13.31-15.06,15.17-37.07,4.58-54.16l-79.73-128.61c-24.05-38.79-75.32-50.16-113.51-25.17Z"/>
    <g class="cls-21">
      <path class="cls-34" d="M727.4,1554.55c-5.27,0-10.52-2.18-14.29-6.44-14.1-15.96-16.04-38.85-4.82-56.96l50.42-81.33c10.11-16.31,25.99-27.56,44.73-31.7,18.74-4.13,37.88-.6,53.91,9.94,8.8,5.79,11.24,17.6,5.45,26.4-5.79,8.79-17.6,11.24-26.4,5.45-7.36-4.84-16.16-6.46-24.75-4.56-8.6,1.9-15.9,7.06-20.54,14.55l-50.42,81.34c-2.29,3.7-1.9,8.37.98,11.63,6.97,7.89,6.23,19.94-1.66,26.91-3.62,3.21-8.13,4.78-12.62,4.78Z"/>
      <path class="cls-14" d="M974,1820.29c-4.49,0-8.99-1.57-12.62-4.78-7.89-6.97-8.63-19.02-1.66-26.91l224.1-253.65c4.75-5.38,5.4-13.08,1.62-19.18l-61.6-99.37c-5.55-8.95-2.79-20.7,6.16-26.25,8.94-5.55,20.7-2.79,26.25,6.16l61.6,99.37c12.71,20.51,10.52,46.43-5.46,64.51l-224.1,253.65c-3.77,4.26-9.02,6.44-14.29,6.44Z"/>
      <g>
        <polygon class="cls-11" points="807.78 1573.1 893.27 1334.82 722.29 1334.82 807.78 1573.1"/>
        <polygon class="cls-27" points="738.23 1334.82 722.29 1334.82 807.78 1573.1 816.13 1549.81 738.23 1334.82"/>
      </g>
      <g>
        <polygon class="cls-11" points="1112.23 1573.1 1179.52 1334.82 1044.95 1334.82 1112.23 1573.1"/>
        <polygon class="cls-27" points="1057.49 1334.82 1044.95 1334.82 1112.23 1573.1 1118.81 1549.81 1057.49 1334.82"/>
      </g>
      <g>
        <polygon class="cls-11" points="863.9 1658.57 914.28 1823.88 813.52 1823.88 863.9 1658.57"/>
        <polygon class="cls-27" points="822.91 1823.88 813.52 1823.88 863.9 1658.57 868.82 1674.73 822.91 1823.88"/>
      </g>
      <g>
        <polygon class="cls-11" points="1054.19 1658.57 1104.57 1823.88 1003.8 1823.88 1054.19 1658.57"/>
        <polygon class="cls-27" points="1013.2 1823.88 1003.8 1823.88 1054.19 1658.57 1059.11 1674.73 1013.2 1823.88"/>
      </g>
      <g>
        <polygon class="cls-11" points="1112.33 1573.1 1197.82 1334.82 1026.84 1334.82 1112.33 1573.1"/>
        <polygon class="cls-27" points="1042.79 1334.82 1026.84 1334.82 1112.33 1573.1 1120.69 1549.81 1042.79 1334.82"/>
      </g>
    </g>
    <path class="cls-9" d="M1061.92,1346.6l-102.32,66.95-101.45-66.7c-38.19-25.11-89.57-13.78-113.66,25.07l-79.63,128.45c-10.59,17.09-8.73,39.1,4.58,54.16l266.06,301.08c13.02,14.73,36,14.73,49.02,0l266.06-301.08c13.31-15.06,15.17-37.07,4.58-54.16l-79.73-128.61c-24.05-38.79-75.32-50.16-113.51-25.17Z"/>
  </g>
  <g>
    <g>
      <g>
        <path class="cls-5" d="M1880.77,965.49s-126.59-.89-204.13,76.65c-75.02,75.02-76.62,195.96-76.65,203.73-.03-7.77-1.63-128.71-76.65-203.73-77.53-77.53-204.13-76.65-204.13-76.65,0,0-.89,126.59,76.65,204.13,77.53,77.53,204.13,76.65,204.13,76.65,0,0,126.59.88,204.13-76.65,77.53-77.53,76.65-204.13,76.65-204.13Z"/>
        <path d="M1880.59,965.49c.12,0,.19,0,.19,0,0,0,.88,126.59-76.65,204.13-75.81,75.81-198.51,76.65-203.94,76.65-.12,0-.19,0-.19,0,0,0-.06,0-.19,0-5.44,0-128.14-.85-203.94-76.65-77.53-77.53-76.65-204.13-76.65-204.13,0,0,.06,0,.19,0,5.44,0,128.14.85,203.94,76.65,75.02,75.02,76.62,195.96,76.65,203.73.02-7.77,1.63-128.71,76.65-203.73,75.81-75.81,198.51-76.65,203.94-76.65M1880.59,946.34c-5.52,0-136.16.94-217.48,82.26-31.65,31.65-51.13,70.31-63.11,106.27-11.99-35.96-31.46-74.62-63.11-106.27-81.32-81.32-211.95-82.26-217.48-82.26h-.34c-10.45.1-18.92,8.56-19,19.01-.04,5.5,0,135.55,82.25,217.8,81.32,81.32,211.96,82.26,217.48,82.26h.19s.19,0,.19,0c5.52,0,136.15-.94,217.48-82.26,82.25-82.25,82.29-212.3,82.26-217.8-.07-10.45-8.55-18.91-19-19.01h-.33Z"/>
      </g>
      <g>
        <path class="cls-5" d="M1523.35,888.84c75.02-75.02,76.62-195.96,76.65-203.73.03,7.77,1.63,128.71,76.65,203.73,77.53,77.53,204.13,76.65,204.13,76.65,0,0,.88-126.59-76.65-204.13-77.53-77.53-204.13-76.65-204.13-76.65,0,0-126.59-.89-204.13,76.65-77.53,77.53-76.65,204.13-76.65,204.13,0,0,126.59.88,204.13-76.65Z"/>
        <path d="M1600.19,684.71c5.44,0,128.14.85,203.94,76.65,77.53,77.53,76.65,204.13,76.65,204.13,0,0-.06,0-.19,0-5.44,0-128.14-.85-203.94-76.65-75.02-75.02-76.62-195.96-76.65-203.73-.03,7.77-1.63,128.71-76.65,203.73-75.81,75.81-198.51,76.65-203.94,76.65-.12,0-.19,0-.19,0,0,0-.89-126.59,76.65-204.13,75.81-75.81,198.51-76.65,203.94-76.65.12,0,.19,0,.19,0,0,0,.06,0,.19,0M1600.19,665.57h-.19s-.19,0-.19,0c-5.52,0-136.16.94-217.48,82.26-82.25,82.25-82.29,212.3-82.25,217.8.07,10.45,8.55,18.91,19,19.01h.33c5.52,0,136.15-.93,217.48-82.26,31.65-31.65,51.12-70.31,63.11-106.27,11.99,35.95,31.47,74.62,63.11,106.27,81.32,81.32,211.96,82.26,217.48,82.26h.34c10.45-.1,18.92-8.56,19-19.01.04-5.5,0-135.55-82.26-217.8-81.32-81.32-211.95-82.26-217.48-82.26h0Z"/>
      </g>
    </g>
    <g>
      <circle class="cls-11" cx="1600" cy="965.49" r="261.01"/>
      <path class="cls-26" d="M1600,714.04c138.65,0,251.44,112.8,251.44,251.44s-112.8,251.44-251.44,251.44-251.44-112.8-251.44-251.44,112.8-251.44,251.44-251.44M1600,704.47c-144.15,0-261.01,116.86-261.01,261.01s116.86,261.01,261.01,261.01,261.01-116.86,261.01-261.01-116.86-261.01-261.01-261.01h0Z"/>
    </g>
    <g>
      <path class="cls-29" d="M1676.65,1042.13c77.53-77.53,204.13-76.65,204.13-76.65,0,0,.89,126.59-76.65,204.13-77.53,77.53-204.13,76.65-204.13,76.65,0,0-.89-126.59,76.65-204.13Z"/>
      <path class="cls-13" d="M1880.59,965.49c.12,0,.19,0,.19,0,0,0,.88,126.59-76.65,204.13-75.8,75.8-198.49,76.65-203.94,76.65-.12,0-.19,0-.19,0,0,0-.89-126.59,76.65-204.13,75.8-75.8,198.5-76.65,203.94-76.65M1880.59,955.91h0c-5.36,0-132.16.9-210.71,79.45-79.45,79.45-79.49,205.63-79.45,210.96.04,5.23,4.27,9.46,9.5,9.51h.26c5.36,0,132.16-.9,210.71-79.45,79.45-79.45,79.49-205.63,79.45-210.96-.04-5.23-4.27-9.46-9.5-9.51h-.26Z"/>
    </g>
    <g>
      <path class="cls-29" d="M1523.35,1042.13c77.53,77.53,76.65,204.13,76.65,204.13,0,0-126.59.89-204.13-76.65-77.53-77.53-76.65-204.13-76.65-204.13,0,0,126.59-.89,204.13,76.65Z"/>
      <path class="cls-13" d="M1319.41,965.49c5.43,0,128.13.84,203.94,76.65,77.53,77.53,76.65,204.13,76.65,204.13,0,0-.06,0-.19,0-5.43,0-128.13-.84-203.94-76.65-77.53-77.53-76.65-204.13-76.65-204.13,0,0,.06,0,.19,0M1319.41,955.91h-.26c-5.23.04-9.47,4.28-9.5,9.51-.04,5.33,0,131.51,79.45,210.96,78.55,78.55,205.35,79.45,210.71,79.45h.26c5.23-.04,9.47-4.28,9.5-9.51.04-5.33,0-131.51-79.45-210.96-78.55-78.55-205.35-79.45-210.71-79.45h0Z"/>
    </g>
    <path class="cls-13" d="M1549.3,1200.35c-76.51,0-94.23-92.68-94.4-93.62-.64-3.5-16.49-85.76-84.98-85.76-2.64,0-4.79-2.14-4.79-4.79s2.14-4.79,4.79-4.79c76.5,0,94.23,92.68,94.4,93.62.64,3.5,16.49,85.76,84.98,85.76,2.64,0,4.79,2.14,4.79,4.79s-2.14,4.79-4.79,4.79Z"/>
    <g>
      <path class="cls-29" d="M1523.35,888.84c-77.53,77.53-204.13,76.65-204.13,76.65,0,0-.89-126.59,76.65-204.13,77.53-77.53,204.13-76.65,204.13-76.65,0,0,.89,126.59-76.65,204.13Z"/>
      <path class="cls-13" d="M1599.81,684.71c.12,0,.19,0,.19,0,0,0,.88,126.59-76.65,204.13-75.8,75.8-198.49,76.65-203.94,76.65-.12,0-.19,0-.19,0,0,0-.89-126.59,76.65-204.13,75.8-75.8,198.5-76.65,203.94-76.65M1599.81,675.14h0c-5.36,0-132.16.9-210.71,79.45-79.45,79.45-79.49,205.63-79.45,210.96.04,5.23,4.27,9.46,9.5,9.51h.26c5.36,0,132.16-.9,210.71-79.45,79.45-79.45,79.49-205.63,79.45-210.96-.04-5.23-4.27-9.46-9.5-9.51h-.26Z"/>
    </g>
    <path class="cls-13" d="M1369.93,919.57c-2.64,0-4.79-2.14-4.79-4.79,0-76.5,92.68-94.23,93.62-94.4,3.5-.64,85.75-16.49,85.75-84.98,0-2.64,2.14-4.79,4.79-4.79s4.79,2.14,4.79,4.79c0,76.51-92.68,94.23-93.61,94.4-3.5.64-85.76,16.49-85.76,84.98,0,2.64-2.14,4.79-4.79,4.79Z"/>
    <g>
      <path class="cls-29" d="M1676.65,888.84c-77.53-77.53-76.65-204.13-76.65-204.13,0,0,126.59-.89,204.13,76.65,77.53,77.53,76.65,204.13,76.65,204.13,0,0-126.59.89-204.13-76.65Z"/>
      <path class="cls-13" d="M1600.19,684.71c5.43,0,128.13.84,203.94,76.65,77.53,77.53,76.65,204.13,76.65,204.13,0,0-.06,0-.19,0-5.43,0-128.13-.84-203.94-76.65-77.53-77.53-76.65-204.13-76.65-204.13,0,0,.06,0,.19,0M1600.19,675.14h-.26c-5.23.04-9.47,4.28-9.5,9.51-.04,5.33,0,131.51,79.45,210.96,78.55,78.55,205.35,79.45,210.71,79.45h.26c5.23-.04,9.47-4.28,9.5-9.51.04-5.33,0-131.51-79.45-210.96-78.55-78.55-205.35-79.45-210.71-79.45h0Z"/>
    </g>
    <path class="cls-13" d="M1830.07,919.57c-76.5,0-94.23-92.68-94.4-93.62-.64-3.5-16.49-85.76-84.98-85.76-2.64,0-4.79-2.14-4.79-4.79s2.14-4.79,4.79-4.79c76.51,0,94.23,92.68,94.4,93.62.64,3.5,16.49,85.76,84.98,85.76,2.64,0,4.79,2.14,4.79,4.79s-2.14,4.79-4.79,4.79Z"/>
    <path class="cls-13" d="M1650.7,1200.35c-2.64,0-4.79-2.14-4.79-4.79,0-76.5,92.68-94.23,93.62-94.4,3.5-.64,85.75-16.49,85.75-84.98,0-2.64,2.14-4.79,4.79-4.79s4.79,2.14,4.79,4.79c0,76.51-92.68,94.23-93.61,94.4-3.5.64-85.76,16.49-85.76,84.98,0,2.64-2.14,4.79-4.79,4.79Z"/>
    <path class="cls-29" d="M1767.6,986.54s69.43-21.86,88.37,15.58c18.93,37.45,17.25,43.34,17.25,43.34,0,0,16.78-76.23,12.2-82.89-4.57-6.66-115.3,8.84-117.82,18.09"/>
    <path class="cls-13" d="M1687.67,1031.98c76.09-65.67,187.73-66.49,192.92-66.49.12,0,.19,0,.19,0,0,0,.75,109.1-61.18,186.76,2.37,2.17,4.73,4.32,7.07,6.45,63.64-79.18,63.71-188.33,63.67-193.28-.04-5.23-4.27-9.46-9.5-9.51h-.26c-5.12,0-121.2.88-200.04,69.58,2.3,2.09,4.67,4.26,7.12,6.49Z"/>
    <g>
      <path class="cls-11" d="M1720.91,965.49c-25.06-5.8-55.88-17.52-79.63-41.28-23.77-23.77-35.49-55-41.28-80.26-5.79,25.25-17.51,56.49-41.28,80.26-23.75,23.75-54.57,35.48-79.63,41.28,25.06,5.8,55.88,17.52,79.63,41.28,23.77,23.77,35.49,55,41.28,80.26,5.79-25.25,17.51-56.49,41.28-80.26,23.75-23.75,54.57-35.48,79.63-41.28Z"/>
      <path class="cls-26" d="M1600,876.52c8.48,21.61,20.16,40.11,34.51,54.46,14.36,14.36,32.74,26.04,54.12,34.51-21.38,8.47-39.76,20.15-54.12,34.51-14.34,14.34-26.03,32.85-34.51,54.46-8.48-21.61-20.16-40.12-34.51-54.46-14.36-14.36-32.74-26.04-54.12-34.51,21.38-8.47,39.76-20.15,54.12-34.51,14.34-14.34,26.03-32.85,34.51-54.46M1600,843.95c-5.79,25.25-17.51,56.49-41.28,80.26-23.75,23.75-54.57,35.48-79.63,41.28,25.06,5.8,55.88,17.52,79.63,41.28,23.77,23.77,35.49,55,41.28,80.26,5.79-25.25,17.51-56.49,41.28-80.26,23.75-23.75,54.57-35.48,79.63-41.28-25.06-5.8-55.88-17.52-79.63-41.28-23.77-23.77-35.49-55-41.28-80.26h0Z"/>
    </g>
  </g>
  <g>
    <g>
      <circle class="cls-11" cx="960" cy="965.49" r="279.94"/>
      <path d="M960,685.54c154.61,0,279.94,125.33,279.94,279.94s-125.33,279.94-279.94,279.94-279.94-125.33-279.94-279.94,125.33-279.94,279.94-279.94M960,665.57c-165.38,0-299.92,134.54-299.92,299.92s134.54,299.92,299.92,299.92,299.92-134.54,299.92-299.92-134.54-299.92-299.92-299.92h0Z"/>
    </g>
    <g>
      <circle class="cls-5" cx="960" cy="965.49" r="279.94"/>
      <path class="cls-32" d="M960,685.54c154.61,0,279.94,125.33,279.94,279.94s-125.33,279.94-279.94,279.94-279.94-125.33-279.94-279.94,125.33-279.94,279.94-279.94M960,675.55c-159.87,0-289.93,130.06-289.93,289.93s130.06,289.93,289.93,289.93,289.93-130.06,289.93-289.93-130.06-289.93-289.93-289.93h0Z"/>
    </g>
    <g>
      <path class="cls-11" d="M836.58,919.14c-46.88-46.88-46.34-123.42-46.34-123.42,0,0,76.54-.54,123.42,46.34,46.88,46.88,46.34,123.42,46.34,123.42,0,0-76.54.54-123.42-46.34Z"/>
      <path class="cls-25" d="M800.76,806.2c21.68,1.7,72.19,9.27,105.84,42.93,33.43,33.43,41.12,84.19,42.89,105.88-21.68-1.7-72.19-9.27-105.84-42.93-33.43-33.43-41.12-84.19-42.89-105.88M790.35,795.72c-.07,0-.11,0-.11,0,0,0-.53,76.54,46.34,123.42,45.83,45.83,120.02,46.34,123.31,46.34.07,0,.11,0,.11,0,0,0,.53-76.54-46.34-123.42-45.83-45.83-120.02-46.34-123.31-46.34h0Z"/>
    </g>
    <g>
      <path class="cls-11" d="M1006.35,1088.9c-46.88-46.88-46.34-123.42-46.34-123.42,0,0,76.54-.54,123.42,46.34,46.88,46.88,46.34,123.42,46.34,123.42,0,0-76.54.54-123.42-46.34Z"/>
      <path class="cls-25" d="M970.52,975.96c21.68,1.7,72.19,9.27,105.84,42.93,33.43,33.43,41.12,84.19,42.89,105.88-21.68-1.7-72.19-9.27-105.84-42.93-33.43-33.43-41.12-84.19-42.89-105.88M960.12,965.48c-.07,0-.11,0-.11,0,0,0-.54,76.54,46.34,123.42,45.83,45.83,120.02,46.34,123.31,46.34.07,0,.11,0,.11,0,0,0,.53-76.54-46.34-123.42-45.83-45.83-120.02-46.34-123.31-46.34h0Z"/>
    </g>
    <g>
      <path class="cls-11" d="M913.66,1088.9c-46.88,46.88-123.42,46.34-123.42,46.34,0,0-.54-76.54,46.34-123.42,46.88-46.88,123.42-46.34,123.42-46.34,0,0,.54,76.54-46.34,123.42Z"/>
      <path class="cls-25" d="M949.5,975.96c-1.73,21.66-9.37,72.34-42.91,105.88-33.65,33.65-84.16,41.23-105.86,42.93,1.74-21.66,9.37-72.34,42.91-105.88,33.66-33.66,84.18-41.23,105.86-42.93M959.89,965.49c-3.29,0-77.47.51-123.31,46.34-46.88,46.88-46.34,123.42-46.34,123.42,0,0,.04,0,.11,0,3.29,0,77.47-.51,123.31-46.34,46.88-46.88,46.34-123.42,46.34-123.42,0,0-.04,0-.11,0h0Z"/>
    </g>
    <g>
      <path class="cls-11" d="M1083.42,919.14c-46.88,46.88-123.42,46.34-123.42,46.34,0,0-.54-76.54,46.34-123.42,46.88-46.88,123.42-46.34,123.42-46.34,0,0,.54,76.54-46.34,123.42Z"/>
      <path class="cls-25" d="M1119.25,806.2c-1.77,21.69-9.46,72.45-42.89,105.88-33.65,33.65-84.16,41.23-105.86,42.93,1.74-21.66,9.37-72.34,42.91-105.88,33.65-33.65,84.16-41.22,105.84-42.93M1129.65,795.72c-3.29,0-77.47.51-123.31,46.34-46.88,46.88-46.34,123.42-46.34,123.42,0,0,.04,0,.11,0,3.29,0,77.47-.51,123.31-46.34,46.88-46.88,46.34-123.42,46.34-123.42,0,0-.04,0-.11,0h0Z"/>
    </g>
    <g>
      <path class="cls-17" d="M905.5,845.44c0-66.3,54.5-120.04,54.5-120.04,0,0,54.5,53.74,54.5,120.04,0,66.3-54.5,120.04-54.5,120.04,0,0-54.5-53.74-54.5-120.04Z"/>
      <path class="cls-28" d="M960,740.28c14.1,16.61,44.51,57.92,44.51,105.16s-30.43,88.58-44.52,105.18c-14.1-16.56-44.5-57.77-44.5-105.18s30.41-88.55,44.51-105.16M960,725.4s-54.5,53.74-54.5,120.04,54.5,120.04,54.5,120.04c0,0,54.5-53.74,54.5-120.04s-54.5-120.04-54.5-120.04h0Z"/>
    </g>
    <g>
      <path class="cls-17" d="M905.5,1085.52c0-66.3,54.5-120.04,54.5-120.04,0,0,54.5,53.74,54.5,120.04,0,66.3-54.5,120.04-54.5,120.04,0,0-54.5-53.74-54.5-120.04Z"/>
      <path class="cls-28" d="M960.02,980.35c14.1,16.56,44.5,57.77,44.5,105.18s-30.43,88.58-44.52,105.18c-14.1-16.56-44.5-57.77-44.5-105.18s30.43-88.58,44.52-105.18M960,965.48s-54.5,53.74-54.5,120.04,54.5,120.04,54.5,120.04c0,0,54.5-53.74,54.5-120.04s-54.5-120.04-54.5-120.04h0Z"/>
    </g>
    <g>
      <path class="cls-17" d="M839.96,1019.99c-66.3,0-120.04-54.5-120.04-54.5,0,0,53.74-54.5,120.04-54.5,66.3,0,120.04,54.5,120.04,54.5,0,0-53.74,54.5-120.04,54.5Z"/>
      <path class="cls-28" d="M839.96,920.97c47.25,0,88.56,30.42,105.16,44.51-16.61,14.1-57.92,44.51-105.16,44.51s-88.56-30.42-105.16-44.51c16.61-14.1,57.92-44.51,105.16-44.51M839.96,910.98c-66.3,0-120.04,54.5-120.04,54.5,0,0,53.74,54.5,120.04,54.5,66.3,0,120.04-54.5,120.04-54.5,0,0-53.74-54.5-120.04-54.5h0Z"/>
    </g>
    <g>
      <path class="cls-17" d="M1080.04,1019.99c-66.3,0-120.04-54.5-120.04-54.5,0,0,53.74-54.5,120.04-54.5,66.3,0,120.04,54.5,120.04,54.5,0,0-53.74,54.5-120.04,54.5Z"/>
      <path class="cls-28" d="M1080.04,920.97c47.25,0,88.56,30.42,105.16,44.51-16.61,14.1-57.92,44.51-105.16,44.51s-88.56-30.42-105.16-44.51c16.61-14.1,57.92-44.51,105.16-44.51M1080.04,910.98c-66.3,0-120.04,54.5-120.04,54.5,0,0,53.74,54.5,120.04,54.5,66.3,0,120.04-54.5,120.04-54.5,0,0-53.74-54.5-120.04-54.5h0Z"/>
    </g>
    <g>
      <circle class="cls-24" cx="960" cy="965.49" r="64.51"/>
      <path class="cls-28" d="M960,910.96c30.07,0,54.52,24.46,54.52,54.52s-24.46,54.52-54.52,54.52-54.52-24.46-54.52-54.52,24.46-54.52,54.52-54.52M960,900.97c-35.63,0-64.51,28.88-64.51,64.51s28.88,64.51,64.51,64.51,64.51-28.88,64.51-64.51-28.88-64.51-64.51-64.51h0Z"/>
    </g>
    <g>
      <g>
        <line class="cls-5" x1="1060.13" y1="725.4" x2="1028.81" y2="800.49"/>
        <path class="cls-32" d="M1028.81,805.49c-.64,0-1.29-.12-1.92-.39-2.55-1.06-3.75-3.99-2.69-6.53l31.32-75.09c1.06-2.55,3.99-3.75,6.53-2.69,2.55,1.06,3.75,3.99,2.69,6.53l-31.32,75.09c-.8,1.92-2.66,3.07-4.61,3.07Z"/>
      </g>
      <g>
        <line class="cls-5" x1="1124.9" y1="896.42" x2="1199.94" y2="864.99"/>
        <path class="cls-32" d="M1124.9,901.42c-1.95,0-3.81-1.15-4.61-3.07-1.06-2.54.13-5.47,2.68-6.54l75.04-31.43c2.55-1.06,5.47.14,6.54,2.68,1.06,2.54-.13,5.47-2.68,6.54l-75.04,31.43c-.63.26-1.28.39-1.92.39Z"/>
      </g>
      <g>
        <line class="cls-5" x1="1199.02" y1="1065.59" x2="1124.9" y2="1034.55"/>
        <path class="cls-32" d="M1199.02,1070.59c-.64,0-1.29-.13-1.92-.39l-74.13-31.05c-2.55-1.07-3.74-3.99-2.68-6.54,1.07-2.54,3.98-3.74,6.54-2.68l74.13,31.05c2.55,1.07,3.74,3.99,2.68,6.54-.8,1.91-2.66,3.07-4.61,3.07Z"/>
      </g>
      <g>
        <line class="cls-5" x1="1028.81" y1="1130.48" x2="1060.13" y2="1205.57"/>
        <path class="cls-32" d="M1060.13,1210.56c-1.96,0-3.81-1.16-4.61-3.07l-31.32-75.09c-1.06-2.54.14-5.47,2.69-6.53,2.54-1.06,5.47.14,6.53,2.69l31.32,75.09c1.06,2.54-.14,5.47-2.69,6.53-.63.26-1.28.39-1.92.39Z"/>
      </g>
      <g>
        <line class="cls-5" x1="891.19" y1="800.49" x2="859.87" y2="725.4"/>
        <path class="cls-32" d="M891.19,805.49c-1.96,0-3.81-1.16-4.61-3.07l-31.32-75.09c-1.06-2.54.14-5.47,2.69-6.53,2.54-1.06,5.47.14,6.53,2.69l31.32,75.09c1.06,2.54-.14,5.47-2.69,6.53-.63.26-1.28.39-1.92.39Z"/>
      </g>
      <g>
        <line class="cls-5" x1="720.07" y1="865" x2="795.11" y2="896.42"/>
        <path class="cls-32" d="M795.11,901.42c-.64,0-1.29-.13-1.92-.39l-75.04-31.43c-2.55-1.07-3.74-3.99-2.68-6.54,1.07-2.54,3.98-3.74,6.54-2.68l75.04,31.43c2.55,1.07,3.74,3.99,2.68,6.54-.8,1.91-2.66,3.07-4.61,3.07Z"/>
      </g>
      <g>
        <line class="cls-5" x1="859.87" y1="1205.57" x2="891.19" y2="1130.48"/>
        <path class="cls-32" d="M859.87,1210.56c-.64,0-1.29-.12-1.92-.39-2.55-1.06-3.75-3.99-2.69-6.53l31.32-75.09c1.06-2.54,3.99-3.75,6.53-2.69,2.55,1.06,3.75,3.99,2.69,6.53l-31.32,75.09c-.8,1.92-2.66,3.07-4.61,3.07Z"/>
      </g>
      <g>
        <line class="cls-5" x1="795.11" y1="1034.55" x2="720.07" y2="1065.98"/>
        <path class="cls-32" d="M720.07,1070.97c-1.95,0-3.81-1.15-4.61-3.07-1.06-2.54.13-5.47,2.68-6.54l75.04-31.43c2.54-1.07,5.47.14,6.54,2.68,1.06,2.54-.13,5.47-2.68,6.54l-75.04,31.43c-.63.27-1.28.39-1.92.39Z"/>
      </g>
    </g>
  </g>
  <path d="M960,1873.03c-11.19,0-21.86-4.81-29.27-13.2l-266.06-301.08c-15.28-17.3-17.38-42.1-5.22-61.71l79.63-128.45c12.56-20.26,32.3-34.24,55.57-39.38,23.28-5.13,47.06-.75,66.98,12.35l97.97,64.41,98.83-64.67c19.92-13.03,43.69-17.37,66.91-12.22,23.24,5.15,42.94,19.13,55.48,39.36l79.73,128.61c12.16,19.62,10.06,44.42-5.22,61.71l-266.06,301.08c-7.41,8.39-18.08,13.2-29.27,13.2ZM813.71,1339.83c-5.42,0-10.88.59-16.31,1.79-19.9,4.39-36.77,16.34-47.5,33.66l-79.63,128.45c-9.18,14.82-7.6,33.54,3.94,46.6l266.06,301.08c5,5.66,12.2,8.9,19.75,8.9s14.75-3.25,19.75-8.9l266.06-301.08c11.54-13.06,13.12-31.79,3.94-46.6l-79.73-128.61c-10.72-17.29-27.56-29.24-47.43-33.64-19.87-4.41-40.18-.69-57.2,10.45h0l-102.32,66.95c-2.12,1.39-4.86,1.38-6.97,0l-101.45-66.7c-12.38-8.14-26.51-12.34-40.95-12.34Z"/>
  <path class="cls-31" d="M843.12,1693.54l-35.34-82.91-35.34,82.91-8.32,19.53c-12.97,30.43,7.18,65.82,40.18,68.05,1.15.08,2.32.12,3.49.12s2.34-.04,3.49-.12c33-2.23,53.15-37.62,40.18-68.05l-8.32-19.53Z"/>
</svg>